<?xml version="1.0" encoding="utf-8"?>
<!-- Generator: Adobe Illustrator 28.0.0, SVG Export Plug-In . SVG Version: 6.00 Build 0)  -->
<svg version="1.1" id="Layer_1" xmlns="http://www.w3.org/2000/svg" xmlns:xlink="http://www.w3.org/1999/xlink" x="0px" y="0px"
	 viewBox="81 111 463 477" style="enable-background:new 0 0 612 792;" xml:space="preserve">
<style type="text/css">
	.st0{fill:#212529;}
	.st1{fill:#FFFFFF;}
</style>
<g>
	<g>
		<path class="st0" d="M394,216c-17.6-14.3-35.1-28.7-52.7-43c-3.9-3.2-7.9-6.2-11.7-9.6c-2.3-2-3.8-1.7-6,0.1
			c-46.9,37.9-93.8,75.8-140.8,113.7c-15.6,12.5-31.3,24.9-47,37.3c-2.3,1.8-3.6,3.4-3.6,6.6c0.3,44.2,0.9,88.4-0.6,132.7
			c-0.1,3.6,0.9,4.5,4.4,4.5c17.5-0.2,35-0.2,52.5,0c3.6,0,4.4-1.1,4.5-4.5c1.4-44.4,1.3-88.7-3.6-133c-0.3-2.6,0.5-3.1,2.9-3.3
			c10.4-0.7,20.8-1.4,31.2-2.3c2.7-0.2,3.4,0.5,3.3,3.3c-1,34.8-2,69.6-2.9,104.4c-1.2,52-1,103.9,1.1,155.8c0.1,3.2-0.4,4.4-4,4.1
			c-9.2-0.8-18.4-1.3-27.7-1.6c-3.2-0.1-4.3-0.9-4-4.4c1.8-27.9,2-55.8,3-83.7c0.1-3.8-0.7-4.9-4.6-4.8c-17.1,0.5-34.3,0.8-51.4,0.9
			c-3.8,0-4.7,1.2-4.8,4.9c-0.9,27.4-2,54.8-2,82.2c0,4.2-1.1,5.3-5.3,5.2c-7.9-0.2-15.8,0.1-23.7,0.6c-4,0.3-4.7-0.9-4.5-4.6
			c2.4-61,2.9-122,3.1-183.1c0.1-16.1,0-32.2-1-49.4c-8.3,6.8-15.9,13-23.4,19.3c-10.9,9.2-21.7,18.6-31.4,29.1
			c-2,2.2-3.3,2.6-5.5,0.1c-6.3-7-12.7-13.9-19.2-20.7c-2.7-2.8-2.1-4.4,0.7-6.7c35.4-29.2,71-58,107.1-86.4
			c38.1-30,75.4-61.2,113.2-91.7c18.3-14.8,36.8-29.3,55.2-43.9c1.7-1.3,3.3-2.7,5.3-4.3c-5.2-4.1-10-8-15-11.7
			c-2.1-1.6-2.6-2.8-0.4-4.6c1.4-1.2,2.5-2.7,3.8-4.1c6.9-7.6,6.9-7.5,15.1-1c70.4,54.8,138.7,112.3,207.8,168.6
			c32.5,26.5,64.8,53.4,97.4,79.9c3.6,2.9,3.8,4.9,0.7,8.2c-3.5,3.7-7,8.6-11.4,9.5c-4.7,0.9-7.3-5.3-10.6-8.5
			c-14.4-14-28.7-28.2-45.1-41.1c-4,9.9-8,19.5-11.9,29.1c-2.1,5.3-3.6,10.9-6.3,15.9c-7.8,14.7-6.7,30.6-6.6,46.3
			c0,4.9-1.1,6.9-6.3,6.7c-5.2-0.2-10.4,0.5-15.6,1c-2.7,0.3-3.4-0.6-3.1-3.3c0.5-5.7,0.4-11.4,1-17.1c1.4-13.2-0.9-25.5-6.2-37.7
			c-6.9-15.5-13.8-31-21.8-46c-0.7-1.4-2.1-2.7-1.6-4.9c8.5,0.1,17-0.1,25.4-1.8c2.7-0.6,3,1.3,3.6,3.1c4.3,12.7,8.6,25.4,12.9,38.2
			c0.5,1.6,1.1,3.1,2,6c3.4-11.3,6.5-21.4,9.5-31.5c1.2-4.2,2.4-8.4,3.3-12.7c0.6-2.9,1.5-5.1,6.6-3.8c-12.7-10.2-24-19.4-35.3-28.6
			c-0.3-0.2-0.6-0.4-0.8-0.6c-17.2-17.8-40.5-22.9-62.8-30c-1.9-0.6-3-0.3-4.2,1.3c-14.6,18.9-34.9,25.2-57.6,26
			c-15.9,0.5-31.5-1.8-46.8-6c-29.6-8.1-56.9-3.3-82,14.2c-0.5,0.4-1.1,0.6-2.2,1.2c0.9-9.7,3.9-18.1,8-26.2
			c21.6-41.8,71.9-67.7,118.5-61c8.7,1.2,16.9,4.3,25.1,7.2c13.9,3.8,24.3,13.1,34.6,22.5c0.4,0.3,0.7,0.7,1,1.2
			c0.9,1.4,2.6,2.8,1.5,4.4c-1,1.5-2.9,0.4-4.2,0c-10.5-2.9-21.1-5.7-31.9-7c-23.5-2.9-46.8-2.8-69.7,3.9c-6.8,1.5-13.2,4.2-19.5,7
			c6.8-3.2,13.9-5.6,21.1-7.6c31.3-7.8,62.4-5.9,93.4,2c9.4,2.4,18.9,4.4,27.9,8.4c-15-11.5-29.6-23.5-44.3-35.4
			C395.6,218.5,394.5,217.5,394,216z"/>
		<path class="st0" d="M368.8,576.5c-3.6,3.5-7,5.8-11.2,6.7c-12.4,2.5-21.8-3.8-25-16.6c-3.5-13.8-2.3-27.7-1.6-41.6
			c0.7-14.9,2.4-29.8,1.2-44.8c-0.2-2.8,1-2.9,3.1-3.1c6.4-0.5,12.7-1.1,19-2c3.6-0.5,4.5,0.1,4,4c-2.4,20-4.5,40-4.6,60.2
			c0,3.2,0.2,6.4,1,9.5c0.8,2.8,2,5.4,4.7,6.8c4.3,2.3,6.5,1,6.4-3.9c-0.9-24.4,1.6-48.7,1.8-73c0-2.5,0.9-3.1,3.2-3
			c6,0.3,12.1,0.5,18.1,0.3c3.6-0.1,4,1.1,3.7,4.3c-1.7,21.6-3,43.2-3.4,64.9c-0.2,11.8,0.4,23.5,2.6,35.1c0.5,2.7,0.2,4-3,3.9
			c-4.5-0.1-9.1-0.2-13.6,0.5c-4.2,0.6-5.9-0.6-5.7-4.7C369.5,579.1,369.1,578.3,368.8,576.5z"/>
		<path class="st0" d="M246.5,533.2c0-14.4,1.6-28.5,8.7-41.4c2.6-4.8,5.8-9,10.3-12.2c12.6-9,27.4-6.3,36,6.4
			c7,10.3,9.5,22.1,10.4,34.3c1.3,16.9,0.6,33.6-7.7,49c-7.4,13.8-20.7,20-33.8,16.1c-8.8-2.6-13.9-9-17.6-16.8
			C247.5,557.3,246.4,545.3,246.5,533.2z"/>
		<path class="st0" d="M397.6,371.6c-0.4-11.2-0.8-27.3-1.5-43.4c-0.1-3,0.6-4.2,3.7-4.5c6.5-0.7,13-1.8,19.5-2.7
			c1.8-0.2,4-1,3.4,2.3c-0.4,2.1,0.8,2.2,2.3,1.7c14.5-4.4,26.2,5.6,29.9,19.7c3.8,14.3,4.2,28.7-3,42.2c-5.2,9.9-14.3,14-25.1,13.6
			c-4.3-0.1-5.5,1.2-5.4,5.3c0.2,8.4-0.6,16.8,0.6,25.2c0.4,2.9,0,4.3-3.5,4c-6.2-0.4-12.4-0.3-18.6,0.9c-3.4,0.6-4.3-0.4-4-3.9
			C397.8,413.5,397.6,395,397.6,371.6z"/>
		<path class="st0" d="M321,374.9c-0.4-12.2-0.8-29.2-1.5-46.2c-0.1-3.3,0.5-4.8,4.1-5.2c6.5-0.6,13-1.8,19.5-2.8
			c1.9-0.3,3.4-0.5,2.9,2.3c-0.5,2.5,1.2,2.1,2.8,1.8c14.1-2.2,23.1,2.6,28.2,15.9c5.2,13.5,5.3,27.3,0.7,41
			c-4.2,12.4-13.6,18.8-27.5,18.6c-4.1,0-5.6,0.9-5.4,5.2c0.3,8.6-0.6,17.2,0.7,25.7c0.5,3.2-0.7,3.7-3.4,3.6
			c-6.2-0.2-12.4-0.1-18.6,0.9c-3.1,0.5-4.4,0-4.1-3.8C321.1,414.6,320.8,397.1,321,374.9z"/>
		<path class="st0" d="M276.1,323c1.3,0,2.7,0,4,0c9.7,0.1,9.7,0.1,10.7,9.5c3.4,31.4,8.7,62.5,16.1,93.2c1,4.2,0.1,5.7-4.1,5.8
			c-3.3,0.1-6.7,0.6-10,1.1c-4.3,0.6-8.5,1.3-8.4-5.2c0-1.9-1.2-2.5-3-2.4c-2.5,0.1-5.1,0.3-7.6,0c-5.1-0.5-8.5,0.6-8.3,6.6
			c0.1,2.7-1.5,3.3-3.9,2.9c-5.7-0.8-11.3-1.6-17-2c-3.8-0.3-4.5-1.3-3.4-5.2c6.4-22.4,12-45.1,16.1-68.1
			c1.9-10.7,3.8-21.5,4.8-32.4c0.3-3,1.1-4.5,4.5-4.1C269.7,323.2,272.9,323,276.1,323C276.1,323,276.1,323,276.1,323z"/>
		<path class="st0" d="M475.9,531.7c11.1-12.9,7.6-27.5,6.5-41.8c-0.3-4.1-2.8-9.3-0.6-12.1c2.3-3,7.9-1.5,12-1.9
			c9.5-1,19.1-0.6,28.7-0.3c2.9,0.1,4.3,1.3,4.5,4.1c0.1,1.2,0.3,2.3,0.3,3.5c0.4,10.6-0.5,11.6-11,11.4c-8.8-0.1-8.8-0.1-8.5,8.7
			c0.3,9.5,0.3,9.5,9.9,9.3c1.3,0,2.7-0.2,4,0c2.9,0.5,7.1-2,8.6,1.4c2.3,5.1,2.2,10.8,0.9,16.3c-0.4,1.6-2.2,1.3-3.5,1.4
			c-5.4,0.4-10.7,0.8-16.1,0.9c-2.6,0.1-3.4,1-3.5,3.5c-0.3,7.9-0.7,15.8-1.3,23.6c-0.2,2.6,0.6,3.5,3.2,3.4
			c6.7-0.2,13.4-0.1,20.1-0.4c2.5-0.1,3.3,0.6,3.1,3.1c-0.4,5.4-1.9,10.5-3.9,15.6c-0.8,2-2.4,2.1-4,2.3c-14,1.7-28.1,2.5-42.2,1.3
			c-3.2-0.3-3.9-1.4-3.3-4.4c2.5-13.2,3.2-26.7,3.8-40.1C484,533.2,484,533.2,475.9,531.7z"/>
		<path class="st0" d="M460.5,494.4c-6.3-1-11.8-1.1-17.1,1.1c-7.4,3-9.4,8.8-4.8,15.3c4.8,6.7,10.4,12.7,15.4,19.3
			c15.5,20.6,7.3,45.7-17.3,53.3c-5.8,1.8-11.8,2.6-17.9,2.8c-2.2,0.1-3.4-0.4-3.5-3c-0.3-5.6-1.5-11-3.4-16.2c-1.3-3.4,0-4,3-3.9
			c3.2,0.1,6.4-0.7,9.3-1.9c9.7-3.8,12.7-12.6,6.9-21.2c-3.6-5.4-8.1-10.2-12.2-15.4c-4.1-5.2-7.6-10.7-8.7-17.4
			c-2-12.9,3.8-23.3,16-28.9c7.6-3.5,15.8-4.3,24.1-4.4c2.1,0,2.9,1.1,3.7,2.7C456.6,482.2,458.6,487.9,460.5,494.4z"/>
	</g>
	<path class="st1" d="M317.4,244.3c35.8-10.7,71.2-7.4,107.2,4.1c-3.5-5-7.3-8.3-11.2-11.4c-4.2-3.4-8.5-6.6-13-9.5
		c-4.3-2.8-9-5.1-13.5-7.6c2.9-0.4,7.7,2.4,7.1-4c17,13.5,34.1,27.1,51.1,40.6c-41.1-13.9-82.6-20.9-125.6-11.2
		C318.5,245.7,317.3,246.3,317.4,244.3z"/>
	<path class="st1" d="M317.4,244.3c0.7,0.4,1.4,0.7,2.1,1.1c-7.6,2.5-15.1,5.1-22.7,7.6C303.3,249.1,310,245.9,317.4,244.3z"/>
	<path class="st1" d="M288.8,530.4c-0.5,8-0.2,15.9-3.5,23.4c-1.4,3.1-3,6.4-7,6.2c-4.3-0.2-5.7-3.8-6.4-7.3
		c-2.6-12.9-2.3-25.7,0.4-38.5c0.2-1,0.6-1.9,1-2.8c1.3-3.1,3.1-5.9,6.8-5.8c4,0.1,5.7,3.2,6.7,6.5
		C288.7,518.1,288.3,524.3,288.8,530.4z"/>
	<path class="st1" d="M421.5,363.3c0-5.2-0.1-10.4,0-15.6c0-1.4-0.1-3.1,1.8-3.8c1.9-0.7,3.6-0.3,5.1,1c0.7,0.7,1.4,1.5,1.9,2.3
		c4.3,6.7,3.3,25.1-1.8,31.4c-1.5,1.9-3.4,3.5-6,2.8c-2.9-0.7-1.5-3.4-1.6-5.1c-0.2-4.3-0.1-8.7-0.1-13.1
		C421.1,363.3,421.3,363.3,421.5,363.3z"/>
	<path class="st1" d="M344.7,363.1c0-5-0.1-10,0-15.1c0-1.6-0.2-3.4,1.9-4.2c2.2-0.8,4.1-0.1,5.5,1.4c1.2,1.4,2.1,3.1,2.6,4.8
		c2.8,9,1.9,17.9-1.7,26.5c-0.5,1.2-1.5,2.2-2.3,3.2c-1.3,1.5-3.1,2.1-5,1.6c-2.3-0.6-1.4-2.7-1.5-4.2c-0.1-4.7,0-9.4,0-14.1
		C344.4,363.1,344.5,363.1,344.7,363.1z"/>
	<path class="st1" d="M275.1,367.5c1.3,8.9,2.5,17.9,3.8,26.8c0.6,4,1.2,8,2,11.9c0.6,2.8,0.4,4.4-3.2,4.3
		c-10.9-0.3-8.5,0.9-7.5-8.5c1.2-11.5,2.9-23,4.3-34.5C274.7,367.5,274.9,367.5,275.1,367.5z"/>
</g>
</svg>
